<?xml version="1.0" standalone="no"?>
<svg width="1056" height="816" xmlns="http://www.w3.org/2000/svg" id="svgvm0"><g transform="translate(5,5)" style="font-family: sans-serif;"><g transform="translate(0,1)"><g><g class="tactic persistence" transform="translate(0, 0)"><g class="techniques"><g class="technique T1547" transform="translate(0, 115.14285714285714)"><rect class="cell" height="115.14285714285714" width="159.5593220338983" fill="#d3d3d3ff" stroke="#6B7279"/><polygon class="sidebar" transform="translate(0, 115.14285714285714)" points="0,0 12,0 12,12" fill="#6B7279" visibility="visible"/><text font-size="9.989137134052388" fill="black"><tspan x="4" y="46.4047619047619">T1547: Boot</tspan><tspan x="4" y="61.07142857142857">or Logon Autostart</tspan><tspan x="4" y="75.73809523809524">Execution</tspan></text></g></g><g class="subtechniques"><g class="subtechnique T1547.001" transform="translate(15, 230.28571428571428)"><rect class="cell" height="115.14285714285714" width="144.5593220338983" fill="#d3d3d3ff" stroke="#6B7279"/><rect class="cell" height="115.14285714285714" width="3" transform="translate(-3, 0)" fill="#6B7279" stroke="#6B7279"/><text font-size="9.989137134052388" fill="black"><tspan x="4" y="38.94642857142857">T1547.001:</tspan><tspan x="4" y="53.69642857142857">Registry</tspan><tspan x="4" y="68.44642857142857">Run Keys</tspan><tspan x="4" y="83.19642857142857">/ Startup Folder</tspan></text></g></g><g class="tactic-label"><text font-size="12" fill="black" font-weight="bold"><tspan text-anchor="middle" x="79.77966101694915" y="61.07142857142857">Persistence</tspan></text></g></g><g class="tactic defense-evasion" transform="translate(177.28813559322032, 0)"><g class="techniques"><g class="technique T1622" transform="translate(0, 115.14285714285714)"><rect class="cell" height="115.14285714285714" width="159.5593220338983" fill="#d3d3d3ff" stroke="#6B7279"/><polygon class="sidebar" transform="translate(0, 115.14285714285714)" points="0,0 12,0 12,0" fill="#6B7279" visibility="hidden"/><text font-size="9.989137134052388" fill="black"><tspan x="4" y="53.82142857142857">T1622:</tspan><tspan x="4" y="68.32142857142857">Debugger Evasion</tspan></text></g><g class="technique T1070" transform="translate(0, 230.28571428571428)"><rect class="cell" height="115.14285714285714" width="159.5593220338983" fill="#d3d3d3ff" stroke="#6B7279"/><polygon class="sidebar" transform="translate(0, 115.14285714285714)" points="0,0 12,0 12,12" fill="#6B7279" visibility="visible"/><text font-size="9.989137134052388" fill="black"><tspan x="4" y="53.82142857142857">T1070:</tspan><tspan x="4" y="68.32142857142857">Indicator Removal</tspan></text></g><g class="technique T1497" transform="translate(0, 460.57142857142856)"><rect class="cell" height="115.14285714285714" width="159.5593220338983" fill="#d3d3d3ff" stroke="#6B7279"/><polygon class="sidebar" transform="translate(0, 115.14285714285714)" points="0,0 12,0 12,12" fill="#6B7279" visibility="visible"/><text font-size="9.989137134052388" fill="black"><tspan x="4" y="45.4047619047619">T1497:</tspan><tspan x="4" y="60.07142857142857">Virtualization/Sandbox</tspan><tspan x="4" y="74.73809523809524">Evasion</tspan></text></g></g><g class="subtechniques"><g class="subtechnique T1070.001" transform="translate(15, 345.4285714285714)"><rect class="cell" height="115.14285714285714" width="144.5593220338983" fill="#d3d3d3ff" stroke="#6B7279"/><rect class="cell" height="115.14285714285714" width="3" transform="translate(-3, 0)" fill="#6B7279" stroke="#6B7279"/><text font-size="9.989137134052388" fill="black"><tspan x="4" y="46.4047619047619">T1070.001:</tspan><tspan x="4" y="61.07142857142857">Clear Windows</tspan><tspan x="4" y="75.73809523809524">Event Logs</tspan></text></g><g class="subtechnique T1497.003" transform="translate(15, 575.7142857142858)"><rect class="cell" height="115.14285714285714" width="144.5593220338983" fill="#d3d3d3ff" stroke="#6B7279"/><rect class="cell" height="115.14285714285714" width="3" transform="translate(-3, 0)" fill="#6B7279" stroke="#6B7279"/><text font-size="9.989137134052388" fill="black"><tspan x="4" y="53.82142857142857">T1497.003: Time</tspan><tspan x="4" y="68.32142857142857">Based Evasion</tspan></text></g></g><g class="tactic-label"><text font-size="12" fill="black" font-weight="bold"><tspan text-anchor="middle" x="79.77966101694915" y="61.07142857142857">Defense Evasion</tspan></text></g></g><g class="tactic discovery" transform="translate(354.57627118644064, 0)"><g class="techniques"><g class="technique T1622" transform="translate(0, 115.14285714285714)"><rect class="cell" height="115.14285714285714" width="159.5593220338983" fill="#d3d3d3ff" stroke="#6B7279"/><polygon class="sidebar" transform="translate(0, 115.14285714285714)" points="0,0 12,0 12,0" fill="#6B7279" visibility="hidden"/><text font-size="9.989137134052388" fill="black"><tspan x="4" y="53.82142857142857">T1622:</tspan><tspan x="4" y="68.32142857142857">Debugger Evasion</tspan></text></g><g class="technique T1083" transform="translate(0, 230.28571428571428)"><rect class="cell" height="115.14285714285714" width="159.5593220338983" fill="#d3d3d3ff" stroke="#6B7279"/><polygon class="sidebar" transform="translate(0, 115.14285714285714)" points="0,0 12,0 12,0" fill="#6B7279" visibility="hidden"/><text font-size="9.989137134052388" fill="black"><tspan x="4" y="46.4047619047619">T1083:</tspan><tspan x="4" y="61.07142857142857">File and Directory</tspan><tspan x="4" y="75.73809523809524">Discovery</tspan></text></g><g class="technique T1033" transform="translate(0, 345.4285714285714)"><rect class="cell" height="115.14285714285714" width="159.5593220338983" fill="#d3d3d3ff" stroke="#6B7279"/><polygon class="sidebar" transform="translate(0, 115.14285714285714)" points="0,0 12,0 12,0" fill="#6B7279" visibility="hidden"/><text font-size="9.989137134052388" fill="black"><tspan x="4" y="46.4047619047619">T1033:</tspan><tspan x="4" y="61.07142857142857">System Owner/User</tspan><tspan x="4" y="75.73809523809524">Discovery</tspan></text></g><g class="technique T1497" transform="translate(0, 460.57142857142856)"><rect class="cell" height="115.14285714285714" width="159.5593220338983" fill="#d3d3d3ff" stroke="#6B7279"/><polygon class="sidebar" transform="translate(0, 115.14285714285714)" points="0,0 12,0 12,12" fill="#6B7279" visibility="visible"/><text font-size="9.989137134052388" fill="black"><tspan x="4" y="45.4047619047619">T1497:</tspan><tspan x="4" y="60.07142857142857">Virtualization/Sandbox</tspan><tspan x="4" y="74.73809523809524">Evasion</tspan></text></g></g><g class="subtechniques"><g class="subtechnique T1497.003" transform="translate(15, 575.7142857142858)"><rect class="cell" height="115.14285714285714" width="144.5593220338983" fill="#d3d3d3ff" stroke="#6B7279"/><rect class="cell" height="115.14285714285714" width="3" transform="translate(-3, 0)" fill="#6B7279" stroke="#6B7279"/><text font-size="9.989137134052388" fill="black"><tspan x="4" y="53.82142857142857">T1497.003: Time</tspan><tspan x="4" y="68.32142857142857">Based Evasion</tspan></text></g></g><g class="tactic-label"><text font-size="12" fill="black" font-weight="bold"><tspan text-anchor="middle" x="79.77966101694915" y="61.07142857142857">Discovery</tspan></text></g></g><g class="tactic command-and-control" transform="translate(531.864406779661, 0)"><g class="techniques"><g class="technique T1071" transform="translate(0, 115.14285714285714)"><rect class="cell" height="115.14285714285714" width="159.5593220338983" fill="#d3d3d3ff" stroke="#6B7279"/><polygon class="sidebar" transform="translate(0, 115.14285714285714)" points="0,0 12,0 12,12" fill="#6B7279" visibility="visible"/><text font-size="9.989137134052388" fill="black"><tspan x="4" y="53.82142857142857">T1071: Application</tspan><tspan x="4" y="68.32142857142857">Layer Protocol</tspan></text></g><g class="technique T1573" transform="translate(0, 460.57142857142856)"><rect class="cell" height="115.14285714285714" width="159.5593220338983" fill="#d3d3d3ff" stroke="#6B7279"/><polygon class="sidebar" transform="translate(0, 115.14285714285714)" points="0,0 12,0 12,12" fill="#6B7279" visibility="visible"/><text font-size="9.989137134052388" fill="black"><tspan x="4" y="53.82142857142857">T1573:</tspan><tspan x="4" y="68.32142857142857">Encrypted Channel</tspan></text></g></g><g class="subtechniques"><g class="subtechnique T1071.004" transform="translate(15, 230.28571428571428)"><rect class="cell" height="115.14285714285714" width="144.5593220338983" fill="#d3d3d3ff" stroke="#6B7279"/><rect class="cell" height="115.14285714285714" width="3" transform="translate(-3, 0)" fill="#6B7279" stroke="#6B7279"/><text font-size="9.989137134052388" fill="black"><tspan x="4" y="61.07142857142857">T1071.004: DNS</tspan></text></g><g class="subtechnique T1071.001" transform="translate(15, 345.4285714285714)"><rect class="cell" height="115.14285714285714" width="144.5593220338983" fill="#d3d3d3ff" stroke="#6B7279"/><rect class="cell" height="115.14285714285714" width="3" transform="translate(-3, 0)" fill="#6B7279" stroke="#6B7279"/><text font-size="9.989137134052388" fill="black"><tspan x="4" y="53.82142857142857">T1071.001:</tspan><tspan x="4" y="68.32142857142857">Web Protocols</tspan></text></g><g class="subtechnique T1573.002" transform="translate(15, 575.7142857142858)"><rect class="cell" height="115.14285714285714" width="144.5593220338983" fill="#d3d3d3ff" stroke="#6B7279"/><rect class="cell" height="115.14285714285714" width="3" transform="translate(-3, 0)" fill="#6B7279" stroke="#6B7279"/><text font-size="9.989137134052388" fill="black"><tspan x="4" y="46.4047619047619">T1573.002:</tspan><tspan x="4" y="61.07142857142857">Asymmetric</tspan><tspan x="4" y="75.73809523809524">Cryptography</tspan></text></g><g class="subtechnique T1573.001" transform="translate(15, 690.8571428571428)"><rect class="cell" height="115.14285714285714" width="144.5593220338983" fill="#d3d3d3ff" stroke="#6B7279"/><rect class="cell" height="115.14285714285714" width="3" transform="translate(-3, 0)" fill="#6B7279" stroke="#6B7279"/><text font-size="9.989137134052388" fill="black"><tspan x="4" y="46.4047619047619">T1573.001:</tspan><tspan x="4" y="61.07142857142857">Symmetric</tspan><tspan x="4" y="75.73809523809524">Cryptography</tspan></text></g></g><g class="tactic-label"><text font-size="12" fill="black" font-weight="bold"><tspan text-anchor="middle" x="79.77966101694915" y="53.82142857142857">Command</tspan><tspan text-anchor="middle" x="79.77966101694915" y="68.32142857142857">and Control</tspan></text></g></g><g class="tactic exfiltration" transform="translate(709.1525423728813, 0)"><g class="techniques"><g class="technique T1030" transform="translate(0, 115.14285714285714)"><rect class="cell" height="115.14285714285714" width="159.5593220338983" fill="#d3d3d3ff" stroke="#6B7279"/><polygon class="sidebar" transform="translate(0, 115.14285714285714)" points="0,0 12,0 12,0" fill="#6B7279" visibility="hidden"/><text font-size="9.989137134052388" fill="black"><tspan x="4" y="46.4047619047619">T1030:</tspan><tspan x="4" y="61.07142857142857">Data Transfer</tspan><tspan x="4" y="75.73809523809524">Size Limits</tspan></text></g></g><g class="subtechniques"/><g class="tactic-label"><text font-size="12" fill="black" font-weight="bold"><tspan text-anchor="middle" x="79.77966101694915" y="61.07142857142857">Exfiltration</tspan></text></g></g><g class="tactic impact" transform="translate(886.4406779661016, 0)"><g class="techniques"><g class="technique T1486" transform="translate(0, 115.14285714285714)"><rect class="cell" height="115.14285714285714" width="159.5593220338983" fill="#d3d3d3ff" stroke="#6B7279"/><polygon class="sidebar" transform="translate(0, 115.14285714285714)" points="0,0 12,0 12,0" fill="#6B7279" visibility="hidden"/><text font-size="9.989137134052388" fill="black"><tspan x="4" y="46.4047619047619">T1486:</tspan><tspan x="4" y="61.07142857142857">Data Encrypted</tspan><tspan x="4" y="75.73809523809524">for Impact</tspan></text></g><g class="technique T1491" transform="translate(0, 230.28571428571428)"><rect class="cell" height="115.14285714285714" width="159.5593220338983" fill="#d3d3d3ff" stroke="#6B7279"/><polygon class="sidebar" transform="translate(0, 115.14285714285714)" points="0,0 12,0 12,12" fill="#6B7279" visibility="visible"/><text font-size="9.989137134052388" fill="black"><tspan x="4" y="61.07142857142857">T1491: Defacement</tspan></text></g><g class="technique T1490" transform="translate(0, 460.57142857142856)"><rect class="cell" height="115.14285714285714" width="159.5593220338983" fill="#d3d3d3ff" stroke="#6B7279"/><polygon class="sidebar" transform="translate(0, 115.14285714285714)" points="0,0 12,0 12,0" fill="#6B7279" visibility="hidden"/><text font-size="9.989137134052388" fill="black"><tspan x="4" y="53.82142857142857">T1490: Inhibit</tspan><tspan x="4" y="68.32142857142857">System Recovery</tspan></text></g></g><g class="subtechniques"><g class="subtechnique T1491.001" transform="translate(15, 345.4285714285714)"><rect class="cell" height="115.14285714285714" width="144.5593220338983" fill="#d3d3d3ff" stroke="#6B7279"/><rect class="cell" height="115.14285714285714" width="3" transform="translate(-3, 0)" fill="#6B7279" stroke="#6B7279"/><text font-size="9.989137134052388" fill="black"><tspan x="4" y="46.4047619047619">T1491.001:</tspan><tspan x="4" y="61.07142857142857">Internal</tspan><tspan x="4" y="75.73809523809524">Defacement</tspan></text></g></g><g class="tactic-label"><text font-size="12" fill="black" font-weight="bold"><tspan text-anchor="middle" x="79.77966101694915" y="61.07142857142857">Impact</tspan></text></g></g></g></g></g></svg>