<?xml version="1.0" standalone="no"?>
<svg width="1056" height="816" xmlns="http://www.w3.org/2000/svg" id="svgvm0"><g transform="translate(5,5)" style="font-family: sans-serif;"><g transform="translate(0,1)"><g><g class="tactic initial-access" transform="translate(0, 0)"><g class="techniques"><g class="technique T1195" transform="translate(0, 100.75)"><rect class="cell" height="100.75" width="119.16455696202532" fill="white" stroke="#6B7279"/><polygon class="sidebar" transform="translate(0, 100.75)" points="0,0 12,0 12,12" fill="#6B7279" visibility="visible"/><text font-size="7.326754890678941" fill="#aaaaaa"><tspan x="4" y="39.20833333333333">T1195:</tspan><tspan x="4" y="53.875">Supply Chain</tspan><tspan x="4" y="68.54166666666666">Compromise</tspan></text></g><g class="technique T1199" transform="translate(0, 302.25)"><rect class="cell" height="100.75" width="119.16455696202532" fill="lightgrey" stroke="#6B7279"/><polygon class="sidebar" transform="translate(0, 100.75)" points="0,0 12,0 12,0" fill="#6B7279" visibility="hidden"/><text font-size="7.326754890678941" fill="black"><tspan x="4" y="39.20833333333333">T1199:</tspan><tspan x="4" y="53.875">Trusted</tspan><tspan x="4" y="68.54166666666666">Relationship</tspan></text></g></g><g class="subtechniques"><g class="subtechnique T1195.001" transform="translate(15, 201.5)"><rect class="cell" height="100.75" width="104.16455696202532" fill="lightgrey" stroke="#6B7279"/><rect class="cell" height="100.75" width="3" transform="translate(-3, 0)" fill="#6B7279" stroke="#6B7279"/><text font-size="7.326754890678941" fill="black"><tspan x="4" y="30.75">T1195.001:</tspan><tspan x="4" y="45.5">Compromise Software</tspan><tspan x="4" y="60.25">Dependencies and</tspan><tspan x="4" y="75">Development Tools</tspan></text></g></g><g class="tactic-label"><text font-size="12" fill="black" font-weight="bold"><tspan text-anchor="middle" x="59.58227848101266" y="46.625">Initial</tspan><tspan text-anchor="middle" x="59.58227848101266" y="61.125">Access</tspan></text></g></g><g class="tactic execution" transform="translate(132.40506329113924, 0)"><g class="techniques"><g class="technique T1059" transform="translate(0, 100.75)"><rect class="cell" height="100.75" width="119.16455696202532" fill="white" stroke="#6B7279"/><polygon class="sidebar" transform="translate(0, 100.75)" points="0,0 12,0 12,12" fill="#6B7279" visibility="visible"/><text font-size="7.326754890678941" fill="#aaaaaa"><tspan x="4" y="31.75">T1059:</tspan><tspan x="4" y="46.5">Command</tspan><tspan x="4" y="61.25">and Scripting</tspan><tspan x="4" y="76">Interpreter</tspan></text></g></g><g class="subtechniques"><g class="subtechnique T1059.001" transform="translate(15, 201.5)"><rect class="cell" height="100.75" width="104.16455696202532" fill="lightgrey" stroke="#6B7279"/><rect class="cell" height="100.75" width="3" transform="translate(-3, 0)" fill="#6B7279" stroke="#6B7279"/><text font-size="7.326754890678941" fill="black"><tspan x="4" y="46.625">T1059.001:</tspan><tspan x="4" y="61.125">PowerShell</tspan></text></g><g class="subtechnique T1059.006" transform="translate(15, 302.25)"><rect class="cell" height="100.75" width="104.16455696202532" fill="lightgrey" stroke="#6B7279"/><rect class="cell" height="100.75" width="3" transform="translate(-3, 0)" fill="#6B7279" stroke="#6B7279"/><text font-size="7.326754890678941" fill="black"><tspan x="4" y="46.625">T1059.006:</tspan><tspan x="4" y="61.125">Python</tspan></text></g></g><g class="tactic-label"><text font-size="12" fill="black" font-weight="bold"><tspan text-anchor="middle" x="59.58227848101266" y="53.875">Execution</tspan></text></g></g><g class="tactic persistence" transform="translate(264.8101265822785, 0)"><g class="techniques"><g class="technique T1547" transform="translate(0, 100.75)"><rect class="cell" height="100.75" width="119.16455696202532" fill="lightgrey" stroke="#6B7279"/><polygon class="sidebar" transform="translate(0, 100.75)" points="0,0 12,0 12,12" fill="#6B7279" visibility="visible"/><text font-size="7.326754890678941" fill="black"><tspan x="4" y="31.75">T1547:</tspan><tspan x="4" y="46.5">Boot or Logon</tspan><tspan x="4" y="61.25">Autostart</tspan><tspan x="4" y="76">Execution</tspan></text></g></g><g class="subtechniques"><g class="subtechnique T1547.001" transform="translate(15, 201.5)"><rect class="cell" height="100.75" width="104.16455696202532" fill="lightgrey" stroke="#6B7279"/><rect class="cell" height="100.75" width="3" transform="translate(-3, 0)" fill="#6B7279" stroke="#6B7279"/><text font-size="7.326754890678941" fill="black"><tspan x="4" y="30.75">T1547.001:</tspan><tspan x="4" y="45.5">Registry</tspan><tspan x="4" y="60.25">Run Keys /</tspan><tspan x="4" y="75">Startup Folder</tspan></text></g></g><g class="tactic-label"><text font-size="12" fill="black" font-weight="bold"><tspan text-anchor="middle" x="59.58227848101266" y="53.875">Persistence</tspan></text></g></g><g class="tactic defense-evasion" transform="translate(397.2151898734177, 0)"><g class="techniques"><g class="technique T1622" transform="translate(0, 100.75)"><rect class="cell" height="100.75" width="119.16455696202532" fill="lightgrey" stroke="#6B7279"/><polygon class="sidebar" transform="translate(0, 100.75)" points="0,0 12,0 12,0" fill="#6B7279" visibility="hidden"/><text font-size="7.326754890678941" fill="black"><tspan x="4" y="39.20833333333333">T1622:</tspan><tspan x="4" y="53.875">Debugger</tspan><tspan x="4" y="68.54166666666666">Evasion</tspan></text></g><g class="technique T1070" transform="translate(0, 201.5)"><rect class="cell" height="100.75" width="119.16455696202532" fill="lightgrey" stroke="#6B7279"/><polygon class="sidebar" transform="translate(0, 100.75)" points="0,0 12,0 12,12" fill="#6B7279" visibility="visible"/><text font-size="7.326754890678941" fill="black"><tspan x="4" y="39.20833333333333">T1070:</tspan><tspan x="4" y="53.875">Indicator</tspan><tspan x="4" y="68.54166666666666">Removal</tspan></text></g><g class="technique T1027" transform="translate(0, 403)"><rect class="cell" height="100.75" width="119.16455696202532" fill="lightgrey" stroke="#6B7279"/><polygon class="sidebar" transform="translate(0, 100.75)" points="0,0 12,0 12,0" fill="#6B7279" visibility="visible"/><text font-size="7.326754890678941" fill="black"><tspan x="4" y="31.75">T1027:</tspan><tspan x="4" y="46.5">Obfuscated</tspan><tspan x="4" y="61.25">Files or</tspan><tspan x="4" y="76">Information</tspan></text></g><g class="technique T1497" transform="translate(0, 503.75)"><rect class="cell" height="100.75" width="119.16455696202532" fill="lightgrey" stroke="#6B7279"/><polygon class="sidebar" transform="translate(0, 100.75)" points="0,0 12,0 12,12" fill="#6B7279" visibility="visible"/><text font-size="7.326754890678941" fill="black"><tspan x="4" y="38.20833333333333">T1497:</tspan><tspan x="4" y="52.875">Virtualization/Sandbox</tspan><tspan x="4" y="67.54166666666666">Evasion</tspan></text></g></g><g class="subtechniques"><g class="subtechnique T1070.001" transform="translate(15, 302.25)"><rect class="cell" height="100.75" width="104.16455696202532" fill="lightgrey" stroke="#6B7279"/><rect class="cell" height="100.75" width="3" transform="translate(-3, 0)" fill="#6B7279" stroke="#6B7279"/><text font-size="7.326754890678941" fill="black"><tspan x="4" y="31.75">T1070.001:</tspan><tspan x="4" y="46.5">Clear</tspan><tspan x="4" y="61.25">Windows</tspan><tspan x="4" y="76">Event Logs</tspan></text></g><g class="subtechnique T1497.003" transform="translate(15, 604.5)"><rect class="cell" height="100.75" width="104.16455696202532" fill="lightgrey" stroke="#6B7279"/><rect class="cell" height="100.75" width="3" transform="translate(-3, 0)" fill="#6B7279" stroke="#6B7279"/><text font-size="7.326754890678941" fill="black"><tspan x="4" y="39.20833333333333">T1497.003:</tspan><tspan x="4" y="53.875">Time Based</tspan><tspan x="4" y="68.54166666666666">Evasion</tspan></text></g></g><g class="tactic-label"><text font-size="12" fill="black" font-weight="bold"><tspan text-anchor="middle" x="59.58227848101266" y="46.625">Defense</tspan><tspan text-anchor="middle" x="59.58227848101266" y="61.125">Evasion</tspan></text></g></g><g class="tactic discovery" transform="translate(529.620253164557, 0)"><g class="techniques"><g class="technique T1622" transform="translate(0, 100.75)"><rect class="cell" height="100.75" width="119.16455696202532" fill="lightgrey" stroke="#6B7279"/><polygon class="sidebar" transform="translate(0, 100.75)" points="0,0 12,0 12,0" fill="#6B7279" visibility="hidden"/><text font-size="7.326754890678941" fill="black"><tspan x="4" y="39.20833333333333">T1622:</tspan><tspan x="4" y="53.875">Debugger</tspan><tspan x="4" y="68.54166666666666">Evasion</tspan></text></g><g class="technique T1083" transform="translate(0, 201.5)"><rect class="cell" height="100.75" width="119.16455696202532" fill="lightgrey" stroke="#6B7279"/><polygon class="sidebar" transform="translate(0, 100.75)" points="0,0 12,0 12,0" fill="#6B7279" visibility="hidden"/><text font-size="7.326754890678941" fill="black"><tspan x="4" y="39.20833333333333">T1083: File</tspan><tspan x="4" y="53.875">and Directory</tspan><tspan x="4" y="68.54166666666666">Discovery</tspan></text></g><g class="technique T1033" transform="translate(0, 302.25)"><rect class="cell" height="100.75" width="119.16455696202532" fill="lightgrey" stroke="#6B7279"/><polygon class="sidebar" transform="translate(0, 100.75)" points="0,0 12,0 12,0" fill="#6B7279" visibility="hidden"/><text font-size="7.326754890678941" fill="black"><tspan x="4" y="39.20833333333333">T1033: System</tspan><tspan x="4" y="53.875">Owner/User</tspan><tspan x="4" y="68.54166666666666">Discovery</tspan></text></g><g class="technique T1497" transform="translate(0, 403)"><rect class="cell" height="100.75" width="119.16455696202532" fill="lightgrey" stroke="#6B7279"/><polygon class="sidebar" transform="translate(0, 100.75)" points="0,0 12,0 12,12" fill="#6B7279" visibility="visible"/><text font-size="7.326754890678941" fill="black"><tspan x="4" y="38.20833333333333">T1497:</tspan><tspan x="4" y="52.875">Virtualization/Sandbox</tspan><tspan x="4" y="67.54166666666666">Evasion</tspan></text></g></g><g class="subtechniques"><g class="subtechnique T1497.003" transform="translate(15, 503.75)"><rect class="cell" height="100.75" width="104.16455696202532" fill="lightgrey" stroke="#6B7279"/><rect class="cell" height="100.75" width="3" transform="translate(-3, 0)" fill="#6B7279" stroke="#6B7279"/><text font-size="7.326754890678941" fill="black"><tspan x="4" y="39.20833333333333">T1497.003:</tspan><tspan x="4" y="53.875">Time Based</tspan><tspan x="4" y="68.54166666666666">Evasion</tspan></text></g></g><g class="tactic-label"><text font-size="12" fill="black" font-weight="bold"><tspan text-anchor="middle" x="59.58227848101266" y="53.875">Discovery</tspan></text></g></g><g class="tactic command-and-control" transform="translate(662.0253164556962, 0)"><g class="techniques"><g class="technique T1071" transform="translate(0, 100.75)"><rect class="cell" height="100.75" width="119.16455696202532" fill="lightgrey" stroke="#6B7279"/><polygon class="sidebar" transform="translate(0, 100.75)" points="0,0 12,0 12,12" fill="#6B7279" visibility="visible"/><text font-size="7.326754890678941" fill="black"><tspan x="4" y="31.75">T1071:</tspan><tspan x="4" y="46.5">Application</tspan><tspan x="4" y="61.25">Layer</tspan><tspan x="4" y="76">Protocol</tspan></text></g><g class="technique T1132" transform="translate(0, 403)"><rect class="cell" height="100.75" width="119.16455696202532" fill="lightgrey" stroke="#6B7279"/><polygon class="sidebar" transform="translate(0, 100.75)" points="0,0 12,0 12,0" fill="#6B7279" visibility="visible"/><text font-size="7.326754890678941" fill="black"><tspan x="4" y="46.625">T1132:</tspan><tspan x="4" y="61.125">Data Encoding</tspan></text></g><g class="technique T1573" transform="translate(0, 503.75)"><rect class="cell" height="100.75" width="119.16455696202532" fill="lightgrey" stroke="#6B7279"/><polygon class="sidebar" transform="translate(0, 100.75)" points="0,0 12,0 12,12" fill="#6B7279" visibility="visible"/><text font-size="7.326754890678941" fill="black"><tspan x="4" y="39.20833333333333">T1573:</tspan><tspan x="4" y="53.875">Encrypted</tspan><tspan x="4" y="68.54166666666666">Channel</tspan></text></g></g><g class="subtechniques"><g class="subtechnique T1071.004" transform="translate(15, 201.5)"><rect class="cell" height="100.75" width="104.16455696202532" fill="lightgrey" stroke="#6B7279"/><rect class="cell" height="100.75" width="3" transform="translate(-3, 0)" fill="#6B7279" stroke="#6B7279"/><text font-size="7.326754890678941" fill="black"><tspan x="4" y="46.625">T1071.004:</tspan><tspan x="4" y="61.125">DNS</tspan></text></g><g class="subtechnique T1071.001" transform="translate(15, 302.25)"><rect class="cell" height="100.75" width="104.16455696202532" fill="lightgrey" stroke="#6B7279"/><rect class="cell" height="100.75" width="3" transform="translate(-3, 0)" fill="#6B7279" stroke="#6B7279"/><text font-size="7.326754890678941" fill="black"><tspan x="4" y="39.20833333333333">T1071.001:</tspan><tspan x="4" y="53.875">Web</tspan><tspan x="4" y="68.54166666666666">Protocols</tspan></text></g><g class="subtechnique T1573.002" transform="translate(15, 604.5)"><rect class="cell" height="100.75" width="104.16455696202532" fill="lightgrey" stroke="#6B7279"/><rect class="cell" height="100.75" width="3" transform="translate(-3, 0)" fill="#6B7279" stroke="#6B7279"/><text font-size="7.326754890678941" fill="black"><tspan x="4" y="39.20833333333333">T1573.002:</tspan><tspan x="4" y="53.875">Asymmetric</tspan><tspan x="4" y="68.54166666666666">Cryptography</tspan></text></g><g class="subtechnique T1573.001" transform="translate(15, 705.25)"><rect class="cell" height="100.75" width="104.16455696202532" fill="lightgrey" stroke="#6B7279"/><rect class="cell" height="100.75" width="3" transform="translate(-3, 0)" fill="#6B7279" stroke="#6B7279"/><text font-size="7.326754890678941" fill="black"><tspan x="4" y="39.20833333333333">T1573.001:</tspan><tspan x="4" y="53.875">Symmetric</tspan><tspan x="4" y="68.54166666666666">Cryptography</tspan></text></g></g><g class="tactic-label"><text font-size="12" fill="black" font-weight="bold"><tspan text-anchor="middle" x="59.58227848101266" y="46.625">Command</tspan><tspan text-anchor="middle" x="59.58227848101266" y="61.125">and Control</tspan></text></g></g><g class="tactic exfiltration" transform="translate(794.4303797468355, 0)"><g class="techniques"><g class="technique T1030" transform="translate(0, 100.75)"><rect class="cell" height="100.75" width="119.16455696202532" fill="lightgrey" stroke="#6B7279"/><polygon class="sidebar" transform="translate(0, 100.75)" points="0,0 12,0 12,0" fill="#6B7279" visibility="hidden"/><text font-size="7.326754890678941" fill="black"><tspan x="4" y="39.20833333333333">T1030:</tspan><tspan x="4" y="53.875">Data Transfer</tspan><tspan x="4" y="68.54166666666666">Size Limits</tspan></text></g><g class="technique T1041" transform="translate(0, 201.5)"><rect class="cell" height="100.75" width="119.16455696202532" fill="lightgrey" stroke="#6B7279"/><polygon class="sidebar" transform="translate(0, 100.75)" points="0,0 12,0 12,0" fill="#6B7279" visibility="hidden"/><text font-size="7.326754890678941" fill="black"><tspan x="4" y="31.75">T1041:</tspan><tspan x="4" y="46.5">Exfiltration</tspan><tspan x="4" y="61.25">Over</tspan><tspan x="4" y="76">C2 Channel</tspan></text></g></g><g class="subtechniques"/><g class="tactic-label"><text font-size="12" fill="black" font-weight="bold"><tspan text-anchor="middle" x="59.58227848101266" y="53.875">Exfiltration</tspan></text></g></g><g class="tactic impact" transform="translate(926.8354430379748, 0)"><g class="techniques"><g class="technique T1486" transform="translate(0, 100.75)"><rect class="cell" height="100.75" width="119.16455696202532" fill="lightgrey" stroke="#6B7279"/><polygon class="sidebar" transform="translate(0, 100.75)" points="0,0 12,0 12,0" fill="#6B7279" visibility="hidden"/><text font-size="7.326754890678941" fill="black"><tspan x="4" y="39.20833333333333">T1486: Data</tspan><tspan x="4" y="53.875">Encrypted</tspan><tspan x="4" y="68.54166666666666">for Impact</tspan></text></g><g class="technique T1491" transform="translate(0, 201.5)"><rect class="cell" height="100.75" width="119.16455696202532" fill="lightgrey" stroke="#6B7279"/><polygon class="sidebar" transform="translate(0, 100.75)" points="0,0 12,0 12,12" fill="#6B7279" visibility="visible"/><text font-size="7.326754890678941" fill="black"><tspan x="4" y="46.625">T1491:</tspan><tspan x="4" y="61.125">Defacement</tspan></text></g><g class="technique T1490" transform="translate(0, 403)"><rect class="cell" height="100.75" width="119.16455696202532" fill="lightgrey" stroke="#6B7279"/><polygon class="sidebar" transform="translate(0, 100.75)" points="0,0 12,0 12,0" fill="#6B7279" visibility="hidden"/><text font-size="7.326754890678941" fill="black"><tspan x="4" y="31.75">T1490:</tspan><tspan x="4" y="46.5">Inhibit</tspan><tspan x="4" y="61.25">System</tspan><tspan x="4" y="76">Recovery</tspan></text></g></g><g class="subtechniques"><g class="subtechnique T1491.001" transform="translate(15, 302.25)"><rect class="cell" height="100.75" width="104.16455696202532" fill="lightgrey" stroke="#6B7279"/><rect class="cell" height="100.75" width="3" transform="translate(-3, 0)" fill="#6B7279" stroke="#6B7279"/><text font-size="7.326754890678941" fill="black"><tspan x="4" y="39.20833333333333">T1491.001:</tspan><tspan x="4" y="53.875">Internal</tspan><tspan x="4" y="68.54166666666666">Defacement</tspan></text></g></g><g class="tactic-label"><text font-size="12" fill="black" font-weight="bold"><tspan text-anchor="middle" x="59.58227848101266" y="53.875">Impact</tspan></text></g></g></g></g></g></svg>